HIERARCHY
ROOT pelvis
{
  OFFSET 0 100 0
  CHANNELS 6 Xposition Yposition Zposition Zrotation Xrotation Yrotation
  JOINT pelvis_right_femur
  {
    OFFSET -10.78128 -3.44521 -0.5502486
    CHANNELS 3 Zrotation Xrotation Yrotation
    JOINT right_femur_tibia
    {
      OFFSET -0.8047443 -44.0398 -0.1307829
      CHANNELS 3 Zrotation Xrotation Yrotation
      JOINT right_tibia_foot
      {
        OFFSET 3.006224 -47.83518 -5
        CHANNELS 3 Zrotation Xrotation Yrotation
        End Site
        {
          OFFSET 0 -5 15
        }
      }
    }
  }
  JOINT pelvis_left_femur
  {
    OFFSET 10.78128 -3.44521 -0.5502486
    CHANNELS 3 Zrotation Xrotation Yrotation
    JOINT left_femur_tibia
    {
      OFFSET 0.8047443 -44.0398 -0.1307829
      CHANNELS 3 Zrotation Xrotation Yrotation
      JOINT left_tibia_foot
      {
        OFFSET -4.370144 -48.10324 -4.275266
        CHANNELS 3 Zrotation Xrotation Yrotation
        End Site
        {
          OFFSET 0 -5 15
        }
      }
    }
  }
  JOINT pelvis_spine1
  {
    OFFSET 0 6.468898 -3.129235
    CHANNELS 3 Zrotation Xrotation Yrotation
    JOINT spine1
    {
      OFFSET 0 23.15396 4.99043
      CHANNELS 3 Zrotation Xrotation Yrotation
      JOINT spine2
      {
        OFFSET 0 20.79997 -5.064912
        CHANNELS 3 Zrotation Xrotation Yrotation
        JOINT neck
        {
          OFFSET 0 14.38658 9.616178
          CHANNELS 3 Zrotation Xrotation Yrotation
          End Site
          {
            OFFSET 0 20 0
          }
        }
      }
      JOINT right_manubrium
      {
        OFFSET -5.722621 16.35077 3.967754
        CHANNELS 3 Zrotation Xrotation Yrotation
        JOINT right_clavicle
        {
          OFFSET -13.16364 1.694482 -4.693211
          CHANNELS 3 Zrotation Xrotation Yrotation
          JOINT right_humerus
          {
            OFFSET -28.5034 -0.3100689 -2.792744
            CHANNELS 3 Zrotation Xrotation Yrotation
            JOINT right_radius
            {
              OFFSET -25.15693 0.02248979 -1.271978
              CHANNELS 3 Zrotation Xrotation Yrotation
              End Site
              {
                OFFSET -15 0 0
              }
            }
          }
        }
      }
      JOINT left_manubrium
      {
        OFFSET 5.722621 16.35077 3.967754
        CHANNELS 3 Zrotation Xrotation Yrotation
        JOINT left_clavicle
        {
          OFFSET 13.16364 1.694482 -4.693211
          CHANNELS 3 Zrotation Xrotation Yrotation
          JOINT left_humerus
          {
            OFFSET 29.39168 -1.063119 -2.237045
            CHANNELS 3 Zrotation Xrotation Yrotation
            JOINT left_radius
            {
              OFFSET 24.59957 -0.9528479 0.9047498
              CHANNELS 3 Zrotation Xrotation Yrotation
              End Site
              {
                OFFSET 15 -0 -0
              }
            }
          }
        }
      }
    }
  }
}
MOTION
Frames: 23
Frame Time: 0.0416666666667
0 103.5113 0 2.581195 0.601016 0.1650765 3.438727 -14.93026 10.83702 -0 37.50709 -0 -4.017427 -18.79924 -2.85102 -9.048367 9.196873 -22.50153 -0 5.172776 -0 20.50569 -10.86616 29.6095 -2.143002 -2.348457 4.670573 2.478671 10.08593 -7.560178 1.417189 20.76712 6.884859 3.901104 -25.2238 8.917893 6.214829 -18.41914 11.21369 85.6419 34.40756 -19.14505 -0 0 14.63983 -9.653094 9.682842 5.117773 7.072571 -21.33342 -1.249547 -92.8338 21.96332 20.40993 0 0 -14.4591 12.07637 14.91694 0.2924561
0.3490165 103.7292 1.478053 1.932096 1.555369 0.2982942 4.550259 -17.36645 11.45578 -0 37.54097 -0 -4.314515 -17.66168 -2.746425 -8.807298 8.984477 -22.33782 -0 5.661319 -0 20.38149 -11.67103 29.92767 -2.20827 -2.268242 4.429072 2.654021 9.85486 -7.690255 1.413832 20.59103 7.020104 3.950943 -25.64064 9.049998 6.2133 -18.24731 11.24774 85.56068 34.38326 -19.15059 -0 0 14.50805 -9.600112 9.732172 5.258673 7.16016 -21.19678 -1.003592 -92.51502 21.91637 19.74671 0 0 -14.827 12.08737 14.77209 0.01295392
0.5877 103.3373 3.760476 0.8668701 0.6730055 0.4612305 4.18385 -22.64473 5.4091 -0 28.51849 -0 -6.8267 -11.59836 -1.603408 -7.294733 11.76641 -20.24475 -0 5.863431 -0 11.04608 -18.49711 24.96431 -2.204147 -2.239763 4.292821 2.805585 9.683478 -7.798957 1.434157 20.52644 7.032241 3.876963 -25.94895 9.163153 6.205426 -18.1386 11.25104 85.62015 34.28334 -19.34874 -0 0 14.36966 -9.250143 9.66069 5.266639 7.078574 -21.03244 -0.8946193 -92.48354 22.42364 19.60489 0 0 -15.20877 11.61114 14.76473 0.5502964
0.8038642 102.8948 6.350456 0.4111191 1.070742 0.5938828 4.595728 -25.27241 4.634708 -0 26.03923 -0 -7.291071 -9.549171 -1.410021 -6.921444 12.23 -19.3562 -0 6.358084 -0 9.597057 -19.92313 23.79623 -2.225023 -2.212088 4.112229 2.986065 9.469179 -7.933384 1.444731 20.40661 7.092474 3.840365 -26.3266 9.296541 6.19372 -18.02182 11.26441 85.63482 34.17917 -19.51399 -0 0 14.26607 -8.941574 9.618444 5.29462 7.060149 -20.87577 -0.7212394 -92.3792 22.77908 19.31186 0 0 -15.61078 11.26654 14.72622 0.8471766
1.012524 102.4261 9.216118 -0.05397319 1.821587 0.76432 5.297189 -27.9722 4.565188 -0 23.97955 -0 -7.571114 -7.832899 -1.27001 -6.641105 12.48005 -18.6615 -0 7.072156 -0 8.957679 -20.93177 23.04299 -2.240569 -2.120554 3.895735 3.183495 9.239607 -8.073171 1.43197 20.27167 7.177916 3.828792 -26.69788 9.392267 6.173081 -17.84954 11.3045 85.63023 34.07395 -19.63177 -0 0 14.04682 -8.756795 9.601583 5.450071 7.010674 -20.71064 -0.5730628 -92.15258 23.06414 18.88434 0 0 -16.10582 10.84946 14.58108 1.17917
1.217773 101.9192 12.36507 -0.4371066 2.436658 0.9929437 5.88538 -30.1672 4.413229 -0 22.05285 -0 -7.90794 -6.242383 -1.049373 -6.401924 12.75888 -18.02967 -0 7.944913 -0 8.434829 -21.64176 22.26814 -2.248441 -2.01291 3.705574 3.349867 9.052716 -8.189562 1.404502 20.1533 7.262248 3.837325 -26.97545 9.438449 6.152029 -17.68121 11.35398 85.617 33.98804 -19.70444 -0 0 13.80172 -8.693864 9.608708 5.649392 6.956238 -20.58643 -0.4772219 -91.89746 23.23049 18.46731 0 0 -16.56013 10.47741 14.39847 1.462429
1.424371 101.3945 15.83037 -0.8097498 2.950644 1.295072 6.427061 -32.04015 4.180693 -0 20.23671 -0 -8.342321 -4.643042 -0.7482841 -6.144762 13.09326 -17.4122 -0 9.098032 -0 7.77885 -22.13654 21.33028 -2.245247 -1.878807 3.541644 3.482637 8.915108 -8.280232 1.363024 20.05964 7.338859 3.861267 -27.14796 9.427586 6.132759 -17.5044 11.41409 85.60317 33.92603 -19.73585 -0 0 13.50047 -8.764773 9.641005 5.905845 6.883087 -20.49854 -0.4471212 -91.60211 23.29455 18.05086 0 0 -16.98846 10.1212 14.16788 1.737008
1.63595 100.8652 19.65584 -1.172106 3.292314 1.676602 6.864859 -33.51118 3.774726 -0 18.49713 -0 -8.861518 -3.021672 -0.3899411 -5.84227 13.52182 -16.74132 -0 10.61427 -0 6.767162 -22.38976 20.06678 -2.234235 -1.740179 3.414017 3.577603 8.829566 -8.344343 1.316859 19.99519 7.39862 3.890447 -27.22369 9.375629 6.117669 -17.3379 11.4751 85.595 33.88601 -19.74203 -0 0 13.18529 -8.922749 9.688196 6.174881 6.801511 -20.44538 -0.4704843 -91.30839 23.28632 17.67739 0 0 -17.35916 9.80345 13.92639 1.991477
1.857026 100.3619 23.89262 -1.539259 3.461493 2.135699 7.226138 -34.52056 3.245253 -0 16.88801 -0 -9.418916 -1.421746 -0.01756881 -5.473245 14.02583 -15.97926 -0 12.66367 -0 5.292916 -22.29604 18.39324 -2.216544 -1.601813 3.324517 3.63458 8.795317 -8.381051 1.271144 19.96468 7.434757 3.916959 -27.21029 9.289954 6.107401 -17.1859 11.53334 85.59587 33.86587 -19.72808 -0 0 12.86753 -9.144142 9.742541 6.442714 6.707656 -20.41771 -0.5431545 -91.03232 23.23642 17.36332 0 0 -17.66192 9.515135 13.68737 2.24323
2.092928 99.93583 28.59026 -1.923466 3.469781 2.656563 7.563639 -34.94154 2.715869 -0 15.5255 -0 -9.92318 0.04092192 0.2857944 -5.018266 14.53783 -15.10862 -0 15.4757 -0 3.268272 -21.68762 16.26627 -2.193898 -1.468382 3.276047 3.651581 8.812012 -8.387711 1.230229 19.97183 7.442762 3.936049 -27.11412 9.177556 6.102297 -17.0546 11.58539 85.60482 33.86562 -19.69154 -0 0 12.56335 -9.412107 9.798156 6.69744 6.601049 -20.4084 -0.6592567 -90.78869 23.1635 17.12401 0 0 -17.88026 9.259296 13.46332 2.493377
2.349472 99.66953 33.78394 -2.338893 3.35218 3.202949 7.962304 -34.5714 2.390042 -0 14.60569 -0 -10.25247 1.166486 0.4022608 -4.460781 14.90055 -14.13933 -0 19.37559 -0 0.6737054 -20.32241 13.72683 -2.166794 -1.33958 3.272061 3.625058 8.881422 -8.359733 1.196631 20.02172 7.418376 3.944666 -26.93463 9.040112 6.102246 -16.94742 11.62973 85.61918 33.88672 -19.6238 -0 0 12.28079 -9.723151 9.851316 6.937357 6.477411 -20.41112 -0.8180992 -90.58525 23.0803 16.97109 0 0 -18.00036 9.032949 13.25896 2.749469
2.631492 99.68187 39.46813 -2.792409 3.175104 3.710044 8.496711 -33.12558 2.514166 -0 14.37759 -0 -10.27809 1.634359 0.1907131 -3.80015 14.8063 -13.12643 -0 24.75219 -0 -2.376965 -17.9324 10.96572 -2.135041 -1.213755 3.31855 3.548636 9.007642 -8.290169 1.171773 20.11998 7.358073 3.9419 -26.6652 8.876254 6.106451 -16.8689 11.66539 85.63365 33.93213 -19.50988 -0 0 12.0284 -10.08388 9.900337 7.165339 6.332991 -20.42223 -1.021025 -90.42797 22.99126 16.91761 0 0 -18.00642 8.836304 13.07569 3.015943
2.940294 100.1152 45.55572 -3.254118 3.027633 4.080502 9.12739 -30.2973 3.222224 -0 14.99919 -0 -9.973918 1.033078 -0.4270574 -3.08989 13.74055 -12.17084 -0 31.93779 -0 -5.51141 -14.38387 8.385968 -2.097465 -1.087963 3.424307 3.413384 9.196268 -8.169941 1.155646 20.272 7.259419 3.92898 -26.29319 8.68133 6.112544 -16.82541 11.69208 85.63955 34.0049 -19.32785 -0 0 11.81644 -10.51145 9.945566 7.390161 6.164384 -20.44075 -1.270954 -90.32127 22.89412 16.97933 0 0 -17.8833 8.669082 12.91051 3.298891
3.271678 101.0789 51.83901 -3.593874 2.944395 4.197412 9.573245 -25.97104 4.254738 -0 16.201 -0 -9.599908 -0.9082907 -1.29665 -2.499232 11.05082 -11.38122 -0 40.87645 -0 -8.023836 -10.027 6.549164 -2.052157 -0.9599448 3.600475 3.209226 9.451061 -7.989082 1.146308 20.47964 7.123612 3.910381 -25.80445 8.449605 6.115065 -16.82768 11.7099 85.62233 34.10568 -19.04782 -0 0 11.66344 -11.03076 9.989277 7.625665 5.971954 -20.46899 -1.56786 -90.26976 22.77907 17.17597 0 0 -17.61946 8.532384 12.75657 3.602857
3.617568 102.5381 58.01618 -3.522799 2.704083 3.969417 9.367343 -20.52833 4.833963 -0 16.96443 -0 -9.65586 -3.7849 -1.958798 -2.305259 6.364303 -10.75884 -0 50.63188 -0 -9.099093 -5.988483 5.897324 -1.996908 -0.8305443 3.857395 2.929568 9.767223 -7.740526 1.138895 20.7355 6.959455 3.894708 -25.1931 8.177944 6.103636 -16.89247 11.71947 85.55937 34.22793 -18.63422 -0 0 11.60224 -11.66651 10.03477 7.889565 5.763655 -20.51216 -1.902178 -90.27909 22.63062 17.52965 0 0 -17.21515 8.427164 12.60349 3.929635
3.968635 104.2347 63.84905 -2.733452 1.748094 3.419952 8.275564 -14.73175 4.349451 -0 16.0799 -0 -10.10592 -6.285484 -2.03542 -2.609613 0.2061965 -10.08372 -0 59.20614 -0 -8.573087 -3.64408 6.4766 -1.929888 -0.7068432 4.199123 2.578322 10.12373 -7.425964 1.125098 21.01742 6.786479 3.893904 -24.47454 7.870738 6.062642 -17.04224 11.72176 85.42104 34.3531 -18.05464 -0 0 11.68228 -12.42778 10.08401 8.198443 5.558004 -20.57689 -2.248712 -90.35732 22.43379 18.06134 0 0 -16.69169 8.351585 12.44046 4.277587
4.306436 105.7971 69.33216 -1.332168 -0.1973956 2.757572 6.671714 -8.968191 3.407567 -0 13.6145 -0 -9.867581 -7.372246 -1.761384 -2.957513 -6.229906 -9.026314 -0 64.16772 -0 -7.452581 -3.257389 8.05379 -1.849499 -0.602039 4.620365 2.172942 10.48355 -7.058639 1.093713 21.29053 6.632205 3.919965 -23.68666 7.539586 5.974291 -17.30072 11.71788 85.17686 34.45158 -17.29054 -0 0 11.96022 -13.29923 10.13612 8.563837 5.380518 -20.66937 -2.570433 -90.51394 22.18214 18.78757 0 0 -16.09452 8.294681 12.2589 4.649036
4.596415 106.954 74.61645 0.02947484 -2.440064 2.194628 5.286975 -3.195184 2.945846 -0 10.81434 -0 -8.564034 -7.655515 -1.574884 -2.632593 -12.18029 -7.533079 -0 63.669 -0 -6.687107 -3.856617 10.32535 -1.753536 -0.5294312 5.110204 1.738126 10.80438 -6.658357 1.031463 21.51621 6.525154 3.982793 -22.87178 7.194678 5.822108 -17.68765 11.70926 84.79894 34.48877 -16.33359 -0 0 12.48539 -14.25885 10.19044 8.999566 5.255354 -20.79479 -2.831405 -90.75274 21.87471 19.71687 0 0 -15.48638 8.231121 12.0466 5.060228
4.818684 107.5655 79.80439 0.7196796 -4.106572 1.705296 4.678778 2.233237 2.6643 -0 8.582285 -0 -7.585696 -8.405836 -1.374548 -1.368212 -17.30645 -5.879236 -0 57.41242 -0 -5.951773 -4.543463 12.85943 -1.641485 -0.4950483 5.651675 1.301529 11.04585 -6.247141 0.9250742 21.6572 6.490474 4.089418 -22.06859 6.841031 5.592033 -18.21325 11.69832 84.26227 34.42547 -15.17577 -0 0 13.28966 -15.29839 10.24889 9.532178 5.200021 -20.95162 -3.002267 -91.05901 21.50439 20.83278 0 0 -14.93695 8.12543 11.7773 5.532375
5.0122 107.5695 84.92968 0.6127634 -5.018266 1.176028 4.944697 6.665349 2.05389 -0 7.330431 -0 -7.751005 -10.01769 -1.045468 0.534929 -21.16157 -4.281109 -0 47.0179 -0 -4.709714 -4.889828 15.09248 -1.520859 -0.4948464 6.210987 0.8974554 11.17348 -5.850903 0.7700616 21.68539 6.540953 4.23628 -21.32769 6.488824 5.278477 -18.86541 11.68747 83.56311 34.22057 -13.82862 -0 0 14.36659 -16.40291 10.30802 10.18475 5.218817 -21.11708 -3.061278 -91.39499 21.06427 22.06806 0 0 -14.49895 7.950116 11.42082 6.060431
5.264578 107.0094 90.05626 0.009348437 -5.347807 0.5775293 5.648261 9.879945 1.381169 -0 7.257795 -0 -8.25541 -12.22149 -0.7980203 2.455458 -23.55799 -2.912841 -0 35.16216 -0 -3.282522 -4.810814 16.6148 -1.408341 -0.5164497 6.739275 0.5599457 11.17558 -5.494311 0.5807197 21.60181 6.661491 4.400483 -20.70699 6.15948 4.894429 -19.60031 11.67704 82.74831 33.85245 -12.35477 -0 0 15.64576 -17.52123 10.35091 10.94286 5.292412 -21.24483 -3.008158 -91.71627 20.56911 23.31384 0 0 -14.17129 7.704888 10.97275 6.598989
5.653325 106.0489 95.32072 -0.663802 -5.233807 -0.06277145 6.111888 12.19495 0.9817502 -0 8.286122 -0 -8.235788 -14.54554 -0.6321467 3.716801 -24.80289 -2.107252 -0 24.52372 -0 -2.356931 -4.547134 17.41238 -1.320857 -0.5444003 7.193406 0.3064843 11.07486 -5.191011 0.385884 21.44271 6.811659 4.547859 -20.24155 5.8762 4.471167 -20.35283 11.66512 81.91097 33.34073 -10.86374 -0 0 17.00253 -18.57678 10.356 11.74785 5.382309 -21.29 -2.872559 -91.99343 20.06084 24.46479 0 0 -13.90302 7.413923 10.4663 7.090615
6.201114 104.9156 100.8873 -1.065788 -4.880991 -0.7204198 5.888035 14.10818 0.7865785 -0 10.18433 -0 -7.730092 -16.2627 -0.3127395 3.922845 -25.31828 -2.173851 -0 16.98573 -0 -2.140629 -4.41199 17.83004 -1.266662 -0.5660496 7.549868 0.1339834 10.91662 -4.944002 0.2144993 21.25961 6.948797 4.651849 -19.9309 5.653899 4.04951 -21.0541 11.64998 81.15259 32.74683 -9.481025 -0 0 18.29471 -19.49705 10.31437 12.51977 5.452298 -21.23719 -2.700215 -92.21517 19.59335 25.44497 0 0 -13.64354 7.110395 9.957361 7.497151
